<mxfile host="app.diagrams.net" modified="2020-11-08T15:54:47.777Z" agent="5.0 (Macintosh; Intel Mac OS X 10_15_7) AppleWebKit/537.36 (KHTML, like Gecko) Chrome/86.0.4240.111 Safari/537.36" etag="eP3A--d991S-3wsiMS6Z" version="13.8.6" type="github">
  <diagram id="oKwaInCrn6BjiO55tSV1" name="Page-1">
    <mxGraphModel dx="2070" dy="727" grid="1" gridSize="10" guides="1" tooltips="1" connect="1" arrows="1" fold="1" page="1" pageScale="1" pageWidth="850" pageHeight="1100" math="0" shadow="0">
      <root>
        <mxCell id="0" />
        <mxCell id="1" parent="0" />
        <mxCell id="sUqxi3b8Aqugcw71bEUu-2" value="&lt;u&gt;employeeID&lt;/u&gt;" style="ellipse;whiteSpace=wrap;html=1;" parent="1" vertex="1">
          <mxGeometry x="285" y="80" width="90" height="50" as="geometry" />
        </mxCell>
        <mxCell id="sUqxi3b8Aqugcw71bEUu-5" value="address" style="ellipse;whiteSpace=wrap;html=1;" parent="1" vertex="1">
          <mxGeometry x="185" y="80" width="90" height="50" as="geometry" />
        </mxCell>
        <mxCell id="sUqxi3b8Aqugcw71bEUu-8" value="&lt;u&gt;customerID&lt;/u&gt;" style="ellipse;whiteSpace=wrap;html=1;" parent="1" vertex="1">
          <mxGeometry x="765" y="65" width="80" height="40" as="geometry" />
        </mxCell>
        <mxCell id="sUqxi3b8Aqugcw71bEUu-9" value="firstName" style="ellipse;whiteSpace=wrap;html=1;" parent="1" vertex="1">
          <mxGeometry x="590" y="100" width="70" height="40" as="geometry" />
        </mxCell>
        <mxCell id="sUqxi3b8Aqugcw71bEUu-10" value="&lt;div&gt;lastName&lt;/div&gt;" style="ellipse;whiteSpace=wrap;html=1;" parent="1" vertex="1">
          <mxGeometry x="635" y="60" width="70" height="40" as="geometry" />
        </mxCell>
        <mxCell id="sUqxi3b8Aqugcw71bEUu-11" value="address" style="ellipse;whiteSpace=wrap;html=1;" parent="1" vertex="1">
          <mxGeometry x="880" y="70" width="70" height="40" as="geometry" />
        </mxCell>
        <mxCell id="sUqxi3b8Aqugcw71bEUu-12" value="city" style="ellipse;whiteSpace=wrap;html=1;" parent="1" vertex="1">
          <mxGeometry x="845" y="15" width="60" height="30" as="geometry" />
        </mxCell>
        <mxCell id="sUqxi3b8Aqugcw71bEUu-13" value="&lt;div&gt;state&lt;/div&gt;" style="ellipse;whiteSpace=wrap;html=1;" parent="1" vertex="1">
          <mxGeometry x="985" y="35" width="50" height="30" as="geometry" />
        </mxCell>
        <mxCell id="sUqxi3b8Aqugcw71bEUu-14" value="zipcode" style="ellipse;whiteSpace=wrap;html=1;" parent="1" vertex="1">
          <mxGeometry x="995" y="85" width="60" height="40" as="geometry" />
        </mxCell>
        <mxCell id="sUqxi3b8Aqugcw71bEUu-15" value="street" style="ellipse;whiteSpace=wrap;html=1;" parent="1" vertex="1">
          <mxGeometry x="920" y="15" width="60" height="30" as="geometry" />
        </mxCell>
        <mxCell id="sUqxi3b8Aqugcw71bEUu-18" value="" style="endArrow=none;html=1;entryX=0.5;entryY=1;entryDx=0;entryDy=0;exitX=0.25;exitY=0;exitDx=0;exitDy=0;" parent="1" source="9zW7e_5ygwajDQlWND0z-40" target="sUqxi3b8Aqugcw71bEUu-5" edge="1">
          <mxGeometry width="50" height="50" relative="1" as="geometry">
            <mxPoint x="245" y="160" as="sourcePoint" />
            <mxPoint x="365" y="320" as="targetPoint" />
          </mxGeometry>
        </mxCell>
        <mxCell id="sUqxi3b8Aqugcw71bEUu-19" value="" style="endArrow=none;html=1;entryX=0;entryY=1;entryDx=0;entryDy=0;exitX=0.75;exitY=0;exitDx=0;exitDy=0;" parent="1" source="9zW7e_5ygwajDQlWND0z-40" target="sUqxi3b8Aqugcw71bEUu-2" edge="1">
          <mxGeometry width="50" height="50" relative="1" as="geometry">
            <mxPoint x="275" y="160" as="sourcePoint" />
            <mxPoint x="365" y="320" as="targetPoint" />
          </mxGeometry>
        </mxCell>
        <mxCell id="sUqxi3b8Aqugcw71bEUu-20" value="" style="endArrow=none;html=1;entryX=0;entryY=0;entryDx=0;entryDy=0;exitX=0.5;exitY=1;exitDx=0;exitDy=0;" parent="1" source="sUqxi3b8Aqugcw71bEUu-12" target="sUqxi3b8Aqugcw71bEUu-11" edge="1">
          <mxGeometry width="50" height="50" relative="1" as="geometry">
            <mxPoint x="855" y="175" as="sourcePoint" />
            <mxPoint x="905" y="125" as="targetPoint" />
          </mxGeometry>
        </mxCell>
        <mxCell id="sUqxi3b8Aqugcw71bEUu-21" value="" style="endArrow=none;html=1;entryX=0.5;entryY=1;entryDx=0;entryDy=0;exitX=0.7;exitY=0.025;exitDx=0;exitDy=0;exitPerimeter=0;" parent="1" source="sUqxi3b8Aqugcw71bEUu-11" target="sUqxi3b8Aqugcw71bEUu-15" edge="1">
          <mxGeometry width="50" height="50" relative="1" as="geometry">
            <mxPoint x="855" y="175" as="sourcePoint" />
            <mxPoint x="945" y="40" as="targetPoint" />
          </mxGeometry>
        </mxCell>
        <mxCell id="sUqxi3b8Aqugcw71bEUu-22" value="" style="endArrow=none;html=1;entryX=0;entryY=1;entryDx=0;entryDy=0;exitX=1;exitY=0;exitDx=0;exitDy=0;" parent="1" source="sUqxi3b8Aqugcw71bEUu-11" target="sUqxi3b8Aqugcw71bEUu-13" edge="1">
          <mxGeometry width="50" height="50" relative="1" as="geometry">
            <mxPoint x="855" y="175" as="sourcePoint" />
            <mxPoint x="905" y="125" as="targetPoint" />
          </mxGeometry>
        </mxCell>
        <mxCell id="sUqxi3b8Aqugcw71bEUu-23" value="" style="endArrow=none;html=1;entryX=0;entryY=0.5;entryDx=0;entryDy=0;exitX=1;exitY=0.5;exitDx=0;exitDy=0;" parent="1" source="sUqxi3b8Aqugcw71bEUu-11" target="sUqxi3b8Aqugcw71bEUu-14" edge="1">
          <mxGeometry width="50" height="50" relative="1" as="geometry">
            <mxPoint x="855" y="175" as="sourcePoint" />
            <mxPoint x="905" y="125" as="targetPoint" />
          </mxGeometry>
        </mxCell>
        <mxCell id="sUqxi3b8Aqugcw71bEUu-24" value="" style="endArrow=none;html=1;entryX=0.25;entryY=0;entryDx=0;entryDy=0;exitX=0.5;exitY=1;exitDx=0;exitDy=0;" parent="1" source="sUqxi3b8Aqugcw71bEUu-8" target="9zW7e_5ygwajDQlWND0z-41" edge="1">
          <mxGeometry width="50" height="50" relative="1" as="geometry">
            <mxPoint x="780" y="-40" as="sourcePoint" />
            <mxPoint x="820" y="145" as="targetPoint" />
          </mxGeometry>
        </mxCell>
        <mxCell id="sUqxi3b8Aqugcw71bEUu-25" value="" style="endArrow=none;html=1;exitX=1;exitY=1;exitDx=0;exitDy=0;entryX=0.5;entryY=0;entryDx=0;entryDy=0;" parent="1" source="sUqxi3b8Aqugcw71bEUu-10" target="YFgNEAuhbHy6hyC9nH0_-4" edge="1">
          <mxGeometry width="50" height="50" relative="1" as="geometry">
            <mxPoint x="640" y="-170" as="sourcePoint" />
            <mxPoint x="690" y="-220" as="targetPoint" />
          </mxGeometry>
        </mxCell>
        <mxCell id="sUqxi3b8Aqugcw71bEUu-26" value="" style="endArrow=none;html=1;entryX=1;entryY=0.5;entryDx=0;entryDy=0;exitX=0;exitY=0.5;exitDx=0;exitDy=0;" parent="1" source="YFgNEAuhbHy6hyC9nH0_-5" target="sUqxi3b8Aqugcw71bEUu-9" edge="1">
          <mxGeometry width="50" height="50" relative="1" as="geometry">
            <mxPoint x="640" y="-170" as="sourcePoint" />
            <mxPoint x="690" y="-220" as="targetPoint" />
          </mxGeometry>
        </mxCell>
        <mxCell id="sUqxi3b8Aqugcw71bEUu-27" value="" style="endArrow=none;html=1;entryX=0.75;entryY=0;entryDx=0;entryDy=0;exitX=0.5;exitY=1;exitDx=0;exitDy=0;" parent="1" source="sUqxi3b8Aqugcw71bEUu-11" target="9zW7e_5ygwajDQlWND0z-41" edge="1">
          <mxGeometry width="50" height="50" relative="1" as="geometry">
            <mxPoint x="780" y="-40" as="sourcePoint" />
            <mxPoint x="850" y="145" as="targetPoint" />
          </mxGeometry>
        </mxCell>
        <mxCell id="sUqxi3b8Aqugcw71bEUu-31" value="&lt;u&gt;mediaID&lt;/u&gt;" style="ellipse;whiteSpace=wrap;html=1;" parent="1" vertex="1">
          <mxGeometry x="635" y="375" width="70" height="40" as="geometry" />
        </mxCell>
        <mxCell id="sUqxi3b8Aqugcw71bEUu-32" value="mediaName" style="ellipse;whiteSpace=wrap;html=1;" parent="1" vertex="1">
          <mxGeometry x="825" y="375" width="80" height="40" as="geometry" />
        </mxCell>
        <mxCell id="sUqxi3b8Aqugcw71bEUu-33" value="" style="endArrow=none;html=1;entryX=0;entryY=0.5;entryDx=0;entryDy=0;exitX=1;exitY=0.5;exitDx=0;exitDy=0;" parent="1" source="YFgNEAuhbHy6hyC9nH0_-21" target="sUqxi3b8Aqugcw71bEUu-32" edge="1">
          <mxGeometry width="50" height="50" relative="1" as="geometry">
            <mxPoint x="825" y="395" as="sourcePoint" />
            <mxPoint x="925" y="375" as="targetPoint" />
          </mxGeometry>
        </mxCell>
        <mxCell id="sUqxi3b8Aqugcw71bEUu-34" value="" style="endArrow=none;html=1;entryX=1;entryY=0.5;entryDx=0;entryDy=0;exitX=0;exitY=0.5;exitDx=0;exitDy=0;" parent="1" source="YFgNEAuhbHy6hyC9nH0_-21" target="sUqxi3b8Aqugcw71bEUu-31" edge="1">
          <mxGeometry width="50" height="50" relative="1" as="geometry">
            <mxPoint x="705" y="395" as="sourcePoint" />
            <mxPoint x="925" y="375" as="targetPoint" />
          </mxGeometry>
        </mxCell>
        <mxCell id="sUqxi3b8Aqugcw71bEUu-37" value="&lt;u&gt;titleID&lt;/u&gt;" style="ellipse;whiteSpace=wrap;html=1;" parent="1" vertex="1">
          <mxGeometry x="40" y="690" width="90" height="50" as="geometry" />
        </mxCell>
        <mxCell id="sUqxi3b8Aqugcw71bEUu-38" value="category" style="ellipse;whiteSpace=wrap;html=1;" parent="1" vertex="1">
          <mxGeometry x="310" y="640" width="90" height="50" as="geometry" />
        </mxCell>
        <mxCell id="sUqxi3b8Aqugcw71bEUu-40" value="publishYear" style="ellipse;whiteSpace=wrap;html=1;" parent="1" vertex="1">
          <mxGeometry x="32.5" y="632.5" width="90" height="50" as="geometry" />
        </mxCell>
        <mxCell id="sUqxi3b8Aqugcw71bEUu-41" value="titleName" style="ellipse;whiteSpace=wrap;html=1;" parent="1" vertex="1">
          <mxGeometry y="565" width="90" height="50" as="geometry" />
        </mxCell>
        <mxCell id="sUqxi3b8Aqugcw71bEUu-43" value="entryDate" style="ellipse;whiteSpace=wrap;html=1;" parent="1" vertex="1">
          <mxGeometry x="310" y="540" width="90" height="50" as="geometry" />
        </mxCell>
        <mxCell id="sUqxi3b8Aqugcw71bEUu-44" value="publisher" style="ellipse;whiteSpace=wrap;html=1;" parent="1" vertex="1">
          <mxGeometry x="280" y="700" width="90" height="50" as="geometry" />
        </mxCell>
        <mxCell id="sUqxi3b8Aqugcw71bEUu-45" value="" style="endArrow=none;html=1;entryX=1;entryY=0.5;entryDx=0;entryDy=0;exitX=0;exitY=0.5;exitDx=0;exitDy=0;" parent="1" source="sUqxi3b8Aqugcw71bEUu-38" target="9zW7e_5ygwajDQlWND0z-24" edge="1">
          <mxGeometry width="50" height="50" relative="1" as="geometry">
            <mxPoint x="320" y="600" as="sourcePoint" />
            <mxPoint x="277.5" y="645" as="targetPoint" />
          </mxGeometry>
        </mxCell>
        <mxCell id="sUqxi3b8Aqugcw71bEUu-46" value="" style="endArrow=none;html=1;entryX=1;entryY=1;entryDx=0;entryDy=0;exitX=0;exitY=0;exitDx=0;exitDy=0;" parent="1" source="sUqxi3b8Aqugcw71bEUu-44" target="9zW7e_5ygwajDQlWND0z-24" edge="1">
          <mxGeometry width="50" height="50" relative="1" as="geometry">
            <mxPoint x="320" y="600" as="sourcePoint" />
            <mxPoint x="247.5" y="675" as="targetPoint" />
          </mxGeometry>
        </mxCell>
        <mxCell id="sUqxi3b8Aqugcw71bEUu-47" value="" style="endArrow=none;html=1;entryX=0;entryY=1;entryDx=0;entryDy=0;exitX=0.75;exitY=0;exitDx=0;exitDy=0;" parent="1" source="9zW7e_5ygwajDQlWND0z-24" target="sUqxi3b8Aqugcw71bEUu-43" edge="1">
          <mxGeometry width="50" height="50" relative="1" as="geometry">
            <mxPoint x="247.5" y="615" as="sourcePoint" />
            <mxPoint x="370" y="550" as="targetPoint" />
          </mxGeometry>
        </mxCell>
        <mxCell id="sUqxi3b8Aqugcw71bEUu-48" value="" style="endArrow=none;html=1;entryX=1;entryY=0;entryDx=0;entryDy=0;exitX=0;exitY=1;exitDx=0;exitDy=0;" parent="1" source="9zW7e_5ygwajDQlWND0z-24" target="sUqxi3b8Aqugcw71bEUu-37" edge="1">
          <mxGeometry width="50" height="50" relative="1" as="geometry">
            <mxPoint x="187.5" y="675" as="sourcePoint" />
            <mxPoint x="370" y="550" as="targetPoint" />
          </mxGeometry>
        </mxCell>
        <mxCell id="sUqxi3b8Aqugcw71bEUu-49" value="" style="endArrow=none;html=1;entryX=1;entryY=0.5;entryDx=0;entryDy=0;exitX=0;exitY=0.75;exitDx=0;exitDy=0;" parent="1" source="9zW7e_5ygwajDQlWND0z-24" target="sUqxi3b8Aqugcw71bEUu-40" edge="1">
          <mxGeometry width="50" height="50" relative="1" as="geometry">
            <mxPoint x="157.50000000000023" y="645" as="sourcePoint" />
            <mxPoint x="370" y="550" as="targetPoint" />
          </mxGeometry>
        </mxCell>
        <mxCell id="sUqxi3b8Aqugcw71bEUu-50" value="" style="endArrow=none;html=1;entryX=1;entryY=1;entryDx=0;entryDy=0;exitX=0;exitY=0.25;exitDx=0;exitDy=0;" parent="1" source="9zW7e_5ygwajDQlWND0z-24" target="sUqxi3b8Aqugcw71bEUu-41" edge="1">
          <mxGeometry width="50" height="50" relative="1" as="geometry">
            <mxPoint x="157.50000000000023" y="630" as="sourcePoint" />
            <mxPoint x="370" y="550" as="targetPoint" />
          </mxGeometry>
        </mxCell>
        <mxCell id="sUqxi3b8Aqugcw71bEUu-52" value="&lt;u&gt;contributorID&lt;/u&gt;" style="ellipse;whiteSpace=wrap;html=1;" parent="1" vertex="1">
          <mxGeometry x="305" y="1020" width="90" height="50" as="geometry" />
        </mxCell>
        <mxCell id="sUqxi3b8Aqugcw71bEUu-55" value="nationality" style="ellipse;whiteSpace=wrap;html=1;" parent="1" vertex="1">
          <mxGeometry x="292.5" y="1090" width="90" height="35" as="geometry" />
        </mxCell>
        <mxCell id="sUqxi3b8Aqugcw71bEUu-56" value="" style="endArrow=none;html=1;entryX=1;entryY=0.75;entryDx=0;entryDy=0;" parent="1" source="sUqxi3b8Aqugcw71bEUu-55" target="9zW7e_5ygwajDQlWND0z-39" edge="1">
          <mxGeometry width="50" height="50" relative="1" as="geometry">
            <mxPoint x="67.5" y="840" as="sourcePoint" />
            <mxPoint x="270" y="1065" as="targetPoint" />
          </mxGeometry>
        </mxCell>
        <mxCell id="sUqxi3b8Aqugcw71bEUu-59" value="" style="endArrow=none;html=1;entryX=0;entryY=0.5;entryDx=0;entryDy=0;exitX=1;exitY=0.25;exitDx=0;exitDy=0;" parent="1" source="9zW7e_5ygwajDQlWND0z-39" target="sUqxi3b8Aqugcw71bEUu-52" edge="1">
          <mxGeometry width="50" height="50" relative="1" as="geometry">
            <mxPoint x="270" y="1050" as="sourcePoint" />
            <mxPoint x="117.5" y="790" as="targetPoint" />
          </mxGeometry>
        </mxCell>
        <mxCell id="sUqxi3b8Aqugcw71bEUu-64" value="&lt;u&gt;roleID&lt;/u&gt;" style="ellipse;whiteSpace=wrap;html=1;" parent="1" vertex="1">
          <mxGeometry x="95" y="832.5" width="70" height="40" as="geometry" />
        </mxCell>
        <mxCell id="sUqxi3b8Aqugcw71bEUu-65" value="&lt;div&gt;roleName&lt;/div&gt;" style="ellipse;whiteSpace=wrap;html=1;" parent="1" vertex="1">
          <mxGeometry x="275" y="835" width="75" height="37.5" as="geometry" />
        </mxCell>
        <mxCell id="sUqxi3b8Aqugcw71bEUu-66" value="" style="endArrow=none;html=1;exitX=1;exitY=0.5;exitDx=0;exitDy=0;entryX=0;entryY=0.5;entryDx=0;entryDy=0;" parent="1" source="sUqxi3b8Aqugcw71bEUu-64" target="YFgNEAuhbHy6hyC9nH0_-1" edge="1">
          <mxGeometry width="50" height="50" relative="1" as="geometry">
            <mxPoint x="340" y="847.5" as="sourcePoint" />
            <mxPoint x="175" y="837.5" as="targetPoint" />
          </mxGeometry>
        </mxCell>
        <mxCell id="sUqxi3b8Aqugcw71bEUu-67" value="" style="endArrow=none;html=1;exitX=1;exitY=0.5;exitDx=0;exitDy=0;entryX=0;entryY=0.5;entryDx=0;entryDy=0;" parent="1" source="YFgNEAuhbHy6hyC9nH0_-1" target="sUqxi3b8Aqugcw71bEUu-65" edge="1">
          <mxGeometry width="50" height="50" relative="1" as="geometry">
            <mxPoint x="260" y="837.5" as="sourcePoint" />
            <mxPoint x="390" y="797.5" as="targetPoint" />
          </mxGeometry>
        </mxCell>
        <mxCell id="sUqxi3b8Aqugcw71bEUu-69" value="street" style="ellipse;whiteSpace=wrap;html=1;" parent="1" vertex="1">
          <mxGeometry x="222.5" y="1270" width="60" height="30" as="geometry" />
        </mxCell>
        <mxCell id="sUqxi3b8Aqugcw71bEUu-70" value="city" style="ellipse;whiteSpace=wrap;html=1;" parent="1" vertex="1">
          <mxGeometry x="222.5" y="1225" width="60" height="30" as="geometry" />
        </mxCell>
        <mxCell id="sUqxi3b8Aqugcw71bEUu-72" value="&lt;div&gt;state&lt;/div&gt;" style="ellipse;whiteSpace=wrap;html=1;" parent="1" vertex="1">
          <mxGeometry x="442.5" y="1220" width="50" height="30" as="geometry" />
        </mxCell>
        <mxCell id="sUqxi3b8Aqugcw71bEUu-73" value="zipcode" style="ellipse;whiteSpace=wrap;html=1;" parent="1" vertex="1">
          <mxGeometry x="450" y="1260" width="60" height="30" as="geometry" />
        </mxCell>
        <mxCell id="sUqxi3b8Aqugcw71bEUu-74" value="" style="endArrow=none;html=1;entryX=1;entryY=0.75;entryDx=0;entryDy=0;exitX=0;exitY=0.5;exitDx=0;exitDy=0;" parent="1" source="sUqxi3b8Aqugcw71bEUu-73" target="9zW7e_5ygwajDQlWND0z-38" edge="1">
          <mxGeometry width="50" height="50" relative="1" as="geometry">
            <mxPoint x="682.5" y="1220" as="sourcePoint" />
            <mxPoint x="422.5" y="1280" as="targetPoint" />
          </mxGeometry>
        </mxCell>
        <mxCell id="sUqxi3b8Aqugcw71bEUu-75" value="" style="endArrow=none;html=1;entryX=1;entryY=0.25;entryDx=0;entryDy=0;exitX=0;exitY=1;exitDx=0;exitDy=0;" parent="1" source="sUqxi3b8Aqugcw71bEUu-72" target="9zW7e_5ygwajDQlWND0z-38" edge="1">
          <mxGeometry width="50" height="50" relative="1" as="geometry">
            <mxPoint x="682.5" y="1220" as="sourcePoint" />
            <mxPoint x="422.5" y="1250" as="targetPoint" />
          </mxGeometry>
        </mxCell>
        <mxCell id="sUqxi3b8Aqugcw71bEUu-76" value="" style="endArrow=none;html=1;entryX=1;entryY=0.5;entryDx=0;entryDy=0;exitX=0;exitY=0.75;exitDx=0;exitDy=0;" parent="1" source="9zW7e_5ygwajDQlWND0z-38" target="sUqxi3b8Aqugcw71bEUu-69" edge="1">
          <mxGeometry width="50" height="50" relative="1" as="geometry">
            <mxPoint x="302.5" y="1280" as="sourcePoint" />
            <mxPoint x="732.5" y="1170" as="targetPoint" />
          </mxGeometry>
        </mxCell>
        <mxCell id="sUqxi3b8Aqugcw71bEUu-77" value="" style="endArrow=none;html=1;exitX=1;exitY=0.5;exitDx=0;exitDy=0;entryX=0;entryY=0.25;entryDx=0;entryDy=0;" parent="1" source="sUqxi3b8Aqugcw71bEUu-70" target="9zW7e_5ygwajDQlWND0z-38" edge="1">
          <mxGeometry width="50" height="50" relative="1" as="geometry">
            <mxPoint x="682.5" y="1220" as="sourcePoint" />
            <mxPoint x="302.5" y="1250" as="targetPoint" />
          </mxGeometry>
        </mxCell>
        <mxCell id="sUqxi3b8Aqugcw71bEUu-80" value="publisherName" style="ellipse;whiteSpace=wrap;html=1;" parent="1" vertex="1">
          <mxGeometry x="665" y="540" width="90" height="40" as="geometry" />
        </mxCell>
        <mxCell id="sUqxi3b8Aqugcw71bEUu-81" value="&lt;u&gt;publisherID&lt;/u&gt;" style="ellipse;whiteSpace=wrap;html=1;" parent="1" vertex="1">
          <mxGeometry x="750" y="632.5" width="80" height="35" as="geometry" />
        </mxCell>
        <mxCell id="sUqxi3b8Aqugcw71bEUu-82" value="" style="endArrow=none;html=1;exitX=0.75;exitY=0;exitDx=0;exitDy=0;entryX=0;entryY=1;entryDx=0;entryDy=0;" parent="1" source="9zW7e_5ygwajDQlWND0z-23" target="sUqxi3b8Aqugcw71bEUu-80" edge="1">
          <mxGeometry width="50" height="50" relative="1" as="geometry">
            <mxPoint x="670" y="605" as="sourcePoint" />
            <mxPoint x="995" y="650" as="targetPoint" />
          </mxGeometry>
        </mxCell>
        <mxCell id="sUqxi3b8Aqugcw71bEUu-83" value="" style="endArrow=none;html=1;exitX=0;exitY=0;exitDx=0;exitDy=0;entryX=1;entryY=0.5;entryDx=0;entryDy=0;" parent="1" source="sUqxi3b8Aqugcw71bEUu-81" target="9zW7e_5ygwajDQlWND0z-23" edge="1">
          <mxGeometry width="50" height="50" relative="1" as="geometry">
            <mxPoint x="945" y="700" as="sourcePoint" />
            <mxPoint x="700" y="635" as="targetPoint" />
          </mxGeometry>
        </mxCell>
        <mxCell id="sUqxi3b8Aqugcw71bEUu-84" value="&lt;u&gt;categoryID&lt;/u&gt;" style="ellipse;whiteSpace=wrap;html=1;" parent="1" vertex="1">
          <mxGeometry x="45" y="432.5" width="75" height="35" as="geometry" />
        </mxCell>
        <mxCell id="sUqxi3b8Aqugcw71bEUu-85" value="categoryName" style="ellipse;whiteSpace=wrap;html=1;" parent="1" vertex="1">
          <mxGeometry x="292.5" y="430" width="90" height="40" as="geometry" />
        </mxCell>
        <mxCell id="sUqxi3b8Aqugcw71bEUu-86" value="" style="endArrow=none;html=1;entryX=0;entryY=0.5;entryDx=0;entryDy=0;exitX=1;exitY=0.5;exitDx=0;exitDy=0;" parent="1" source="9zW7e_5ygwajDQlWND0z-28" target="sUqxi3b8Aqugcw71bEUu-85" edge="1">
          <mxGeometry width="50" height="50" relative="1" as="geometry">
            <mxPoint x="237.5" y="437.5" as="sourcePoint" />
            <mxPoint x="250" y="330" as="targetPoint" />
          </mxGeometry>
        </mxCell>
        <mxCell id="sUqxi3b8Aqugcw71bEUu-87" value="" style="endArrow=none;html=1;entryX=0;entryY=0.5;entryDx=0;entryDy=0;exitX=1;exitY=0.5;exitDx=0;exitDy=0;" parent="1" source="sUqxi3b8Aqugcw71bEUu-84" target="9zW7e_5ygwajDQlWND0z-28" edge="1">
          <mxGeometry width="50" height="50" relative="1" as="geometry">
            <mxPoint x="130" y="428" as="sourcePoint" />
            <mxPoint x="142.50000000000023" y="437.5" as="targetPoint" />
          </mxGeometry>
        </mxCell>
        <mxCell id="YFgNEAuhbHy6hyC9nH0_-1" value="&lt;font style=&quot;font-size: 14px&quot;&gt;Role&lt;/font&gt;" style="rhombus;whiteSpace=wrap;html=1;" vertex="1" parent="1">
          <mxGeometry x="170" y="830" width="80" height="47.5" as="geometry" />
        </mxCell>
        <mxCell id="YFgNEAuhbHy6hyC9nH0_-4" value="" style="ellipse;whiteSpace=wrap;html=1;" vertex="1" parent="1">
          <mxGeometry x="675" y="110" width="70" height="40" as="geometry" />
        </mxCell>
        <mxCell id="YFgNEAuhbHy6hyC9nH0_-5" value="Name" style="ellipse;whiteSpace=wrap;html=1;" vertex="1" parent="1">
          <mxGeometry x="680" y="115" width="60" height="30" as="geometry" />
        </mxCell>
        <mxCell id="9zW7e_5ygwajDQlWND0z-5" value="assists" style="rhombus;whiteSpace=wrap;html=1;" vertex="1" parent="1">
          <mxGeometry x="460" y="150" width="80" height="80" as="geometry" />
        </mxCell>
        <mxCell id="YFgNEAuhbHy6hyC9nH0_-6" value="firstName" style="ellipse;whiteSpace=wrap;html=1;" vertex="1" parent="1">
          <mxGeometry x="50" y="145" width="70" height="40" as="geometry" />
        </mxCell>
        <mxCell id="9zW7e_5ygwajDQlWND0z-6" value="" style="endArrow=none;html=1;exitX=1;exitY=0.5;exitDx=0;exitDy=0;entryX=0;entryY=0.5;entryDx=0;entryDy=0;" edge="1" parent="1" source="9zW7e_5ygwajDQlWND0z-5" target="9zW7e_5ygwajDQlWND0z-41">
          <mxGeometry width="50" height="50" relative="1" as="geometry">
            <mxPoint x="540" y="320" as="sourcePoint" />
            <mxPoint x="760" y="190" as="targetPoint" />
          </mxGeometry>
        </mxCell>
        <mxCell id="YFgNEAuhbHy6hyC9nH0_-7" value="&lt;div&gt;lastName&lt;/div&gt;" style="ellipse;whiteSpace=wrap;html=1;" vertex="1" parent="1">
          <mxGeometry x="95" y="105" width="70" height="40" as="geometry" />
        </mxCell>
        <mxCell id="9zW7e_5ygwajDQlWND0z-7" value="" style="endArrow=none;html=1;exitX=1;exitY=0.5;exitDx=0;exitDy=0;entryX=0;entryY=0.5;entryDx=0;entryDy=0;" edge="1" parent="1" source="9zW7e_5ygwajDQlWND0z-40" target="9zW7e_5ygwajDQlWND0z-5">
          <mxGeometry width="50" height="50" relative="1" as="geometry">
            <mxPoint x="335" y="190" as="sourcePoint" />
            <mxPoint x="440" y="155" as="targetPoint" />
          </mxGeometry>
        </mxCell>
        <mxCell id="YFgNEAuhbHy6hyC9nH0_-8" value="" style="endArrow=none;html=1;exitX=1;exitY=1;exitDx=0;exitDy=0;entryX=0.5;entryY=0;entryDx=0;entryDy=0;" edge="1" parent="1" source="YFgNEAuhbHy6hyC9nH0_-7" target="YFgNEAuhbHy6hyC9nH0_-10">
          <mxGeometry width="50" height="50" relative="1" as="geometry">
            <mxPoint x="100" y="-125" as="sourcePoint" />
            <mxPoint x="150" y="-175" as="targetPoint" />
          </mxGeometry>
        </mxCell>
        <mxCell id="YFgNEAuhbHy6hyC9nH0_-9" value="" style="endArrow=none;html=1;entryX=1;entryY=0.5;entryDx=0;entryDy=0;exitX=0;exitY=0.5;exitDx=0;exitDy=0;" edge="1" parent="1" source="YFgNEAuhbHy6hyC9nH0_-11" target="YFgNEAuhbHy6hyC9nH0_-6">
          <mxGeometry width="50" height="50" relative="1" as="geometry">
            <mxPoint x="100" y="-125" as="sourcePoint" />
            <mxPoint x="150" y="-175" as="targetPoint" />
          </mxGeometry>
        </mxCell>
        <mxCell id="YFgNEAuhbHy6hyC9nH0_-10" value="" style="ellipse;whiteSpace=wrap;html=1;" vertex="1" parent="1">
          <mxGeometry x="135" y="155" width="70" height="40" as="geometry" />
        </mxCell>
        <mxCell id="YFgNEAuhbHy6hyC9nH0_-11" value="Name" style="ellipse;whiteSpace=wrap;html=1;" vertex="1" parent="1">
          <mxGeometry x="140" y="160" width="60" height="30" as="geometry" />
        </mxCell>
        <mxCell id="YFgNEAuhbHy6hyC9nH0_-12" value="" style="endArrow=none;html=1;entryX=0;entryY=0;entryDx=0;entryDy=0;exitX=1;exitY=1;exitDx=0;exitDy=0;" edge="1" parent="1" source="YFgNEAuhbHy6hyC9nH0_-4" target="9zW7e_5ygwajDQlWND0z-41">
          <mxGeometry width="50" height="50" relative="1" as="geometry">
            <mxPoint x="680" y="290" as="sourcePoint" />
            <mxPoint x="760" y="175" as="targetPoint" />
          </mxGeometry>
        </mxCell>
        <mxCell id="YFgNEAuhbHy6hyC9nH0_-13" value="" style="endArrow=none;html=1;entryX=0;entryY=0.5;entryDx=0;entryDy=0;exitX=1;exitY=1;exitDx=0;exitDy=0;" edge="1" parent="1" source="YFgNEAuhbHy6hyC9nH0_-11" target="9zW7e_5ygwajDQlWND0z-40">
          <mxGeometry width="50" height="50" relative="1" as="geometry">
            <mxPoint x="490" y="320" as="sourcePoint" />
            <mxPoint x="215" y="205" as="targetPoint" />
          </mxGeometry>
        </mxCell>
        <mxCell id="YFgNEAuhbHy6hyC9nH0_-14" value="firstName" style="ellipse;whiteSpace=wrap;html=1;" vertex="1" parent="1">
          <mxGeometry x="-22.5" y="1060" width="70" height="40" as="geometry" />
        </mxCell>
        <mxCell id="YFgNEAuhbHy6hyC9nH0_-15" value="&lt;div&gt;lastName&lt;/div&gt;" style="ellipse;whiteSpace=wrap;html=1;" vertex="1" parent="1">
          <mxGeometry x="-12.5" y="1010" width="70" height="40" as="geometry" />
        </mxCell>
        <mxCell id="YFgNEAuhbHy6hyC9nH0_-16" value="" style="endArrow=none;html=1;exitX=1;exitY=1;exitDx=0;exitDy=0;entryX=0;entryY=0;entryDx=0;entryDy=0;" edge="1" parent="1" source="YFgNEAuhbHy6hyC9nH0_-15" target="YFgNEAuhbHy6hyC9nH0_-18">
          <mxGeometry width="50" height="50" relative="1" as="geometry">
            <mxPoint x="32.5" y="750" as="sourcePoint" />
            <mxPoint x="82.5" y="700" as="targetPoint" />
          </mxGeometry>
        </mxCell>
        <mxCell id="YFgNEAuhbHy6hyC9nH0_-17" value="" style="endArrow=none;html=1;entryX=1;entryY=0.5;entryDx=0;entryDy=0;exitX=0;exitY=0.5;exitDx=0;exitDy=0;" edge="1" parent="1" source="YFgNEAuhbHy6hyC9nH0_-19" target="YFgNEAuhbHy6hyC9nH0_-14">
          <mxGeometry width="50" height="50" relative="1" as="geometry">
            <mxPoint x="32.5" y="750" as="sourcePoint" />
            <mxPoint x="82.5" y="700" as="targetPoint" />
          </mxGeometry>
        </mxCell>
        <mxCell id="YFgNEAuhbHy6hyC9nH0_-18" value="" style="ellipse;whiteSpace=wrap;html=1;" vertex="1" parent="1">
          <mxGeometry x="67.5" y="1050" width="70" height="40" as="geometry" />
        </mxCell>
        <mxCell id="YFgNEAuhbHy6hyC9nH0_-19" value="Name" style="ellipse;whiteSpace=wrap;html=1;" vertex="1" parent="1">
          <mxGeometry x="72.5" y="1055" width="60" height="30" as="geometry" />
        </mxCell>
        <mxCell id="YFgNEAuhbHy6hyC9nH0_-20" value="" style="endArrow=none;html=1;exitX=1;exitY=0.5;exitDx=0;exitDy=0;entryX=0;entryY=0.5;entryDx=0;entryDy=0;" edge="1" parent="1" source="YFgNEAuhbHy6hyC9nH0_-18" target="9zW7e_5ygwajDQlWND0z-39">
          <mxGeometry width="50" height="50" relative="1" as="geometry">
            <mxPoint x="287.5" y="1090" as="sourcePoint" />
            <mxPoint x="150" y="1065" as="targetPoint" />
          </mxGeometry>
        </mxCell>
        <mxCell id="YFgNEAuhbHy6hyC9nH0_-21" value="&lt;font style=&quot;font-size: 14px&quot;&gt;Media&lt;/font&gt;" style="rhombus;whiteSpace=wrap;html=1;" vertex="1" parent="1">
          <mxGeometry x="720" y="370" width="80" height="50" as="geometry" />
        </mxCell>
        <mxCell id="9zW7e_5ygwajDQlWND0z-9" value="telephone" style="ellipse;whiteSpace=wrap;html=1;" vertex="1" parent="1">
          <mxGeometry x="-67.5" y="1275" width="60" height="30" as="geometry" />
        </mxCell>
        <mxCell id="9zW7e_5ygwajDQlWND0z-10" value="country" style="ellipse;whiteSpace=wrap;html=1;" vertex="1" parent="1">
          <mxGeometry x="-67.5" y="1230" width="60" height="30" as="geometry" />
        </mxCell>
        <mxCell id="9zW7e_5ygwajDQlWND0z-11" value="email" style="ellipse;whiteSpace=wrap;html=1;" vertex="1" parent="1">
          <mxGeometry x="142.5" y="1225" width="50" height="30" as="geometry" />
        </mxCell>
        <mxCell id="9zW7e_5ygwajDQlWND0z-12" value="" style="endArrow=none;html=1;entryX=1;entryY=0.25;entryDx=0;entryDy=0;exitX=0;exitY=1;exitDx=0;exitDy=0;" edge="1" parent="1" source="9zW7e_5ygwajDQlWND0z-11" target="9zW7e_5ygwajDQlWND0z-36">
          <mxGeometry width="50" height="50" relative="1" as="geometry">
            <mxPoint x="392.5" y="1225" as="sourcePoint" />
            <mxPoint x="132.50000000000023" y="1255" as="targetPoint" />
          </mxGeometry>
        </mxCell>
        <mxCell id="9zW7e_5ygwajDQlWND0z-13" value="" style="endArrow=none;html=1;entryX=1;entryY=0.5;entryDx=0;entryDy=0;exitX=0;exitY=0.75;exitDx=0;exitDy=0;" edge="1" parent="1" source="9zW7e_5ygwajDQlWND0z-36" target="9zW7e_5ygwajDQlWND0z-9">
          <mxGeometry width="50" height="50" relative="1" as="geometry">
            <mxPoint x="12.500000000000227" y="1285" as="sourcePoint" />
            <mxPoint x="442.5" y="1175" as="targetPoint" />
          </mxGeometry>
        </mxCell>
        <mxCell id="9zW7e_5ygwajDQlWND0z-14" value="" style="endArrow=none;html=1;exitX=1;exitY=0.5;exitDx=0;exitDy=0;entryX=0;entryY=0.25;entryDx=0;entryDy=0;" edge="1" parent="1" source="9zW7e_5ygwajDQlWND0z-10" target="9zW7e_5ygwajDQlWND0z-36">
          <mxGeometry width="50" height="50" relative="1" as="geometry">
            <mxPoint x="392.5" y="1225" as="sourcePoint" />
            <mxPoint x="12.500000000000227" y="1255" as="targetPoint" />
          </mxGeometry>
        </mxCell>
        <mxCell id="9zW7e_5ygwajDQlWND0z-15" value="medium" style="ellipse;whiteSpace=wrap;html=1;" vertex="1" parent="1">
          <mxGeometry x="212.5" y="515" width="90" height="50" as="geometry" />
        </mxCell>
        <mxCell id="9zW7e_5ygwajDQlWND0z-16" value="" style="endArrow=none;html=1;entryX=0.5;entryY=1;entryDx=0;entryDy=0;exitX=0.5;exitY=0;exitDx=0;exitDy=0;" edge="1" parent="1" source="9zW7e_5ygwajDQlWND0z-24" target="9zW7e_5ygwajDQlWND0z-15">
          <mxGeometry width="50" height="50" relative="1" as="geometry">
            <mxPoint x="217.5" y="615" as="sourcePoint" />
            <mxPoint x="175" y="620" as="targetPoint" />
          </mxGeometry>
        </mxCell>
        <mxCell id="9zW7e_5ygwajDQlWND0z-17" value="" style="endArrow=none;html=1;entryX=0.5;entryY=1;entryDx=0;entryDy=0;exitX=0.5;exitY=0;exitDx=0;exitDy=0;" edge="1" parent="1" source="9zW7e_5ygwajDQlWND0z-36" target="9zW7e_5ygwajDQlWND0z-29">
          <mxGeometry width="50" height="50" relative="1" as="geometry">
            <mxPoint x="72.50000000000023" y="1240" as="sourcePoint" />
            <mxPoint x="287.5" y="1075" as="targetPoint" />
          </mxGeometry>
        </mxCell>
        <mxCell id="9zW7e_5ygwajDQlWND0z-18" value="" style="endArrow=none;html=1;entryX=0.5;entryY=1;entryDx=0;entryDy=0;exitX=0.5;exitY=0;exitDx=0;exitDy=0;" edge="1" parent="1" source="9zW7e_5ygwajDQlWND0z-38" target="9zW7e_5ygwajDQlWND0z-29">
          <mxGeometry width="50" height="50" relative="1" as="geometry">
            <mxPoint x="362.5" y="1235" as="sourcePoint" />
            <mxPoint x="227.5" y="1090" as="targetPoint" />
          </mxGeometry>
        </mxCell>
        <mxCell id="9zW7e_5ygwajDQlWND0z-19" value="" style="endArrow=none;html=1;entryX=0.5;entryY=1;entryDx=0;entryDy=0;" edge="1" parent="1" source="YFgNEAuhbHy6hyC9nH0_-1" target="9zW7e_5ygwajDQlWND0z-24">
          <mxGeometry width="50" height="50" relative="1" as="geometry">
            <mxPoint x="105" y="920" as="sourcePoint" />
            <mxPoint x="217.5" y="675" as="targetPoint" />
          </mxGeometry>
        </mxCell>
        <mxCell id="9zW7e_5ygwajDQlWND0z-20" value="" style="endArrow=none;html=1;entryX=0.5;entryY=1;entryDx=0;entryDy=0;exitX=0.5;exitY=0;exitDx=0;exitDy=0;" edge="1" parent="1" source="9zW7e_5ygwajDQlWND0z-39" target="YFgNEAuhbHy6hyC9nH0_-1">
          <mxGeometry width="50" height="50" relative="1" as="geometry">
            <mxPoint x="210" y="1020" as="sourcePoint" />
            <mxPoint x="232.5" y="685" as="targetPoint" />
          </mxGeometry>
        </mxCell>
        <mxCell id="9zW7e_5ygwajDQlWND0z-21" value="" style="endArrow=none;html=1;entryX=0.5;entryY=1;entryDx=0;entryDy=0;exitX=0.25;exitY=0;exitDx=0;exitDy=0;" edge="1" parent="1" source="9zW7e_5ygwajDQlWND0z-24" target="9zW7e_5ygwajDQlWND0z-28">
          <mxGeometry width="50" height="50" relative="1" as="geometry">
            <mxPoint x="187.5" y="615" as="sourcePoint" />
            <mxPoint x="190" y="457.5" as="targetPoint" />
          </mxGeometry>
        </mxCell>
        <mxCell id="9zW7e_5ygwajDQlWND0z-23" value="&lt;font style=&quot;font-size: 14px&quot;&gt;Publisher&lt;/font&gt;" style="rounded=0;whiteSpace=wrap;html=1;" vertex="1" parent="1">
          <mxGeometry x="585" y="600" width="120" height="60" as="geometry" />
        </mxCell>
        <mxCell id="9zW7e_5ygwajDQlWND0z-24" value="&lt;font style=&quot;font-size: 14px&quot;&gt;Titles&lt;/font&gt;" style="rounded=0;whiteSpace=wrap;html=1;" vertex="1" parent="1">
          <mxGeometry x="163.75" y="620" width="92.5" height="55" as="geometry" />
        </mxCell>
        <mxCell id="9zW7e_5ygwajDQlWND0z-28" value="&lt;font style=&quot;font-size: 14px&quot;&gt;Categories&lt;/font&gt;" style="rhombus;whiteSpace=wrap;html=1;" vertex="1" parent="1">
          <mxGeometry x="140" y="410" width="95" height="80" as="geometry" />
        </mxCell>
        <mxCell id="9zW7e_5ygwajDQlWND0z-29" value="" style="ellipse;whiteSpace=wrap;html=1;aspect=fixed;" vertex="1" parent="1">
          <mxGeometry x="195" y="1095" width="30" height="30" as="geometry" />
        </mxCell>
        <mxCell id="9zW7e_5ygwajDQlWND0z-30" value="" style="endArrow=none;html=1;entryX=0.5;entryY=1;entryDx=0;entryDy=0;exitX=0.5;exitY=0;exitDx=0;exitDy=0;" edge="1" parent="1" source="9zW7e_5ygwajDQlWND0z-29" target="9zW7e_5ygwajDQlWND0z-39">
          <mxGeometry width="50" height="50" relative="1" as="geometry">
            <mxPoint x="380" y="1090" as="sourcePoint" />
            <mxPoint x="210" y="1080" as="targetPoint" />
          </mxGeometry>
        </mxCell>
        <mxCell id="9zW7e_5ygwajDQlWND0z-31" value="&lt;font style=&quot;font-size: 14px&quot;&gt;(1, M)&lt;/font&gt;" style="text;html=1;strokeColor=none;fillColor=none;align=center;verticalAlign=middle;whiteSpace=wrap;rounded=0;" vertex="1" parent="1">
          <mxGeometry x="185" y="930" width="100" height="40" as="geometry" />
        </mxCell>
        <mxCell id="9zW7e_5ygwajDQlWND0z-32" value="&lt;font style=&quot;font-size: 14px&quot;&gt;(1, M)&lt;/font&gt;" style="text;html=1;strokeColor=none;fillColor=none;align=center;verticalAlign=middle;whiteSpace=wrap;rounded=0;" vertex="1" parent="1">
          <mxGeometry x="130" y="730" width="100" height="40" as="geometry" />
        </mxCell>
        <mxCell id="9zW7e_5ygwajDQlWND0z-33" value="&lt;font style=&quot;font-size: 14px&quot;&gt;(1, M)&lt;/font&gt;" style="text;html=1;strokeColor=none;fillColor=none;align=center;verticalAlign=middle;whiteSpace=wrap;rounded=0;" vertex="1" parent="1">
          <mxGeometry x="105" y="500" width="100" height="40" as="geometry" />
        </mxCell>
        <mxCell id="9zW7e_5ygwajDQlWND0z-34" value="" style="endArrow=none;html=1;entryX=0;entryY=0.5;entryDx=0;entryDy=0;exitX=1;exitY=0.25;exitDx=0;exitDy=0;" edge="1" parent="1" source="9zW7e_5ygwajDQlWND0z-24" target="9zW7e_5ygwajDQlWND0z-23">
          <mxGeometry width="50" height="50" relative="1" as="geometry">
            <mxPoint x="220" y="840" as="sourcePoint" />
            <mxPoint x="220" y="685" as="targetPoint" />
          </mxGeometry>
        </mxCell>
        <mxCell id="9zW7e_5ygwajDQlWND0z-35" value="&lt;font style=&quot;font-size: 14px&quot;&gt;(1, 1)&lt;/font&gt;" style="text;html=1;strokeColor=none;fillColor=none;align=center;verticalAlign=middle;whiteSpace=wrap;rounded=0;" vertex="1" parent="1">
          <mxGeometry x="430" y="600" width="100" height="40" as="geometry" />
        </mxCell>
        <mxCell id="9zW7e_5ygwajDQlWND0z-36" value="&lt;font style=&quot;font-size: 14px&quot;&gt;Non-Domestic Contributor&lt;/font&gt;" style="rounded=0;whiteSpace=wrap;html=1;" vertex="1" parent="1">
          <mxGeometry x="10" y="1230" width="120" height="60" as="geometry" />
        </mxCell>
        <mxCell id="9zW7e_5ygwajDQlWND0z-38" value="&lt;font style=&quot;font-size: 14px&quot;&gt;Domestic Contributor&lt;/font&gt;" style="rounded=0;whiteSpace=wrap;html=1;" vertex="1" parent="1">
          <mxGeometry x="310" y="1225" width="120" height="60" as="geometry" />
        </mxCell>
        <mxCell id="9zW7e_5ygwajDQlWND0z-39" value="&lt;font style=&quot;font-size: 14px&quot;&gt;Contributor&lt;/font&gt;" style="rounded=0;whiteSpace=wrap;html=1;" vertex="1" parent="1">
          <mxGeometry x="157.5" y="1030" width="105" height="50" as="geometry" />
        </mxCell>
        <mxCell id="9zW7e_5ygwajDQlWND0z-40" value="&lt;font style=&quot;font-size: 14px&quot;&gt;Employee&lt;/font&gt;" style="rounded=0;whiteSpace=wrap;html=1;" vertex="1" parent="1">
          <mxGeometry x="230" y="162.5" width="92.5" height="55" as="geometry" />
        </mxCell>
        <mxCell id="9zW7e_5ygwajDQlWND0z-41" value="&lt;font style=&quot;font-size: 14px&quot;&gt;Customer&lt;/font&gt;" style="rounded=0;whiteSpace=wrap;html=1;" vertex="1" parent="1">
          <mxGeometry x="780" y="160" width="92.5" height="55" as="geometry" />
        </mxCell>
      </root>
    </mxGraphModel>
  </diagram>
</mxfile>
